P2
3 3
255
11 22 33
44 55 66
77 88 99
